<svg width="332" height="48" viewBox="0 0 332 48" fill="none" xmlns="http://www.w3.org/2000/svg">
<g opacity="0.6">
<rect width="1.35938" height="48" transform="translate(4)" fill="white"/>
<rect width="4.60938" height="36" transform="translate(15.1831 12)" fill="white"/>
<rect width="3.6875" height="36" transform="translate(29.6162 12)" fill="white"/>
<rect width="1.20312" height="36" transform="translate(43.1274 12)" fill="white"/>
<rect width="4.73438" height="48" transform="translate(54.1543)" fill="white"/>
<rect width="1.71875" height="36" transform="translate(68.7124 12)" fill="white"/>
<rect width="2.14062" height="36" transform="translate(80.2549 12)" fill="white"/>
<rect width="3.09375" height="36" transform="translate(92.2192 12)" fill="white"/>
<rect width="3.57812" height="48" transform="translate(105.137)" fill="white"/>
<rect width="3.01562" height="36" transform="translate(118.539 12)" fill="white"/>
<rect width="1.46875" height="36" transform="translate(131.378 12)" fill="white"/>
<rect width="4.96875" height="36" transform="translate(142.67 12)" fill="white"/>
<rect width="2.34375" height="48" transform="translate(157.463)" fill="white"/>
<rect width="3.64062" height="36" transform="translate(169.63 12)" fill="white"/>
<rect width="4.45312" height="36" transform="translate(183.095 12)" fill="white"/>
<rect width="3.40625" height="36" transform="translate(197.372 12)" fill="white"/>
<rect width="2.625" height="48" transform="translate(210.602)" fill="white"/>
<rect width="2.21875" height="36" transform="translate(223.051 12)" fill="white"/>
<rect width="2.51562" height="36" transform="translate(235.093 12)" fill="white"/>
<rect width="1.96875" height="36" transform="translate(247.433 12)" fill="white"/>
<rect width="3.96875" height="48" transform="translate(259.225)" fill="white"/>
<rect width="2.95312" height="36" transform="translate(273.018 12)" fill="white"/>
<rect width="2.125" height="36" transform="translate(285.794 12)" fill="white"/>
<rect width="3.59375" height="36" transform="translate(297.743 12)" fill="white"/>
<rect width="4.65625" height="48" transform="translate(311.161)" fill="white"/>
<rect width="2.35938" height="36" transform="translate(325.641 12)" fill="white"/>
</g>
</svg>
